<svg width="7" height="5" viewBox="0 0 7 5" fill="none" xmlns="http://www.w3.org/2000/svg">
<path d="M0.333 0.000127374H6.333C6.37568 -0.00106958 6.41817 0.00617929 6.45803 0.0214573C6.4979 0.0367354 6.53435 0.0597414 6.56529 0.0891531C6.59624 0.118565 6.62107 0.153802 6.63835 0.19284C6.65563 0.231878 6.66503 0.273946 6.666 0.316627V4.10563C6.66483 4.14818 6.65529 4.19009 6.63793 4.22895C6.62056 4.26782 6.5957 4.30288 6.56477 4.33213C6.53385 4.36139 6.49746 4.38426 6.45769 4.39944C6.41792 4.41463 6.37555 4.42183 6.333 4.42063H0.333C0.290448 4.42183 0.248076 4.41463 0.208307 4.39944C0.168538 4.38426 0.132151 4.36139 0.101226 4.33213C0.0703005 4.30288 0.0454431 4.26782 0.0280743 4.22895C0.0107054 4.19009 0.00116561 4.14818 0 4.10563L0 0.316627C0.000971466 0.273946 0.0103685 0.231878 0.027651 0.19284C0.0449335 0.153802 0.0697607 0.118565 0.100706 0.0891531C0.131651 0.0597414 0.168103 0.0367354 0.207968 0.0214573C0.247833 0.00617929 0.290324 -0.00106958 0.333 0.000127374Z" fill="#001C72"/>
</svg>
