<svg width="156" height="160" viewBox="0 0 156 160" fill="none" xmlns="http://www.w3.org/2000/svg">
<path d="M113.965 22.6853L105.746 56.2327C105.155 58.5134 105.251 60.589 107.037 60.589C109.608 60.589 114.653 54.5553 116.837 50.7903L118.913 52.5762C115.147 59.5995 109.318 65.8383 101.799 65.8383C97.0444 65.8383 95.8617 61.8802 97.2496 56.4378L105.565 22.6974H97.8409L98.8306 19.0409H106.446L108.618 10.6058L117.127 5.6582L118.213 6.34604L114.846 19.0047H131.102L130.016 22.6612H113.965V22.6853Z" fill="#FCF1E0"/>
<path d="M22.8461 0.0227051H47.0921C58.666 0.0227051 69.2623 3.58259 69.2623 17.629C69.2623 25.2436 66.2934 31.9772 60.3556 35.6336C55.3109 38.7952 48.8783 39.7848 42.7474 39.7848C39.1871 39.7848 34.3355 39.29 32.3562 38.6022L28.2046 56.8119C27.6132 59.7805 28.0115 61.1682 30.2804 61.3613L36.713 61.856L36.1216 64.6315H8.89465L9.58257 61.856L14.6273 61.3613C16.9083 61.0596 17.7893 59.9735 18.4893 56.8119L29.7735 7.83031C30.4614 4.76519 29.8701 3.47398 27.6977 3.2809L22.2547 2.79821L22.8461 0.0227051ZM33.9251 32.5805C33.2372 35.4526 37.3889 36.4421 41.8422 36.4421C52.8247 36.4421 58.9556 29.8171 58.9556 16.4585C58.9556 8.14406 54.2006 3.30504 45.1008 3.30504C40.5509 3.30504 40.2491 3.7998 39.6578 6.67184L33.9251 32.5805Z" fill="#FCF1E0"/>
<path d="M95.391 52.2625C88.9584 62.6525 80.5465 65.8142 73.1242 65.8142C67.283 65.8142 59.3659 63.4369 59.3659 50.4765C59.3659 42.6568 62.2383 34.1493 67.0899 28.1156C72.2311 21.7803 78.7724 17.8221 87.1722 17.8221C94.8962 17.8221 98.2513 22.275 98.2513 27.3192C98.2513 40.0865 78.5551 43.7429 68.9605 44.829C68.864 45.5168 68.7674 47.7976 68.7674 48.2923C68.7674 55.5207 70.7467 61.0596 77.1793 61.0596C84.2033 61.0596 89.5497 55.3155 93.11 50.3679L95.391 52.2625ZM89.8514 26.6434C89.8514 23.4818 88.0653 21.1045 84.8067 21.1045C77.481 21.1045 70.8553 30.505 69.2743 41.6794C81.2344 39.99 89.8514 35.5491 89.8514 26.6434Z" fill="#FCF1E0"/>
<path d="M15.4479 111.646L16.0393 108.871L21.1806 108.376C23.4616 108.074 24.3426 107.085 25.0426 103.826L36.2302 54.8449C37.0268 51.7798 36.4233 50.392 34.251 50.2955L28.808 49.8007L29.3994 47.0252H56.1195L55.4315 49.8007L49.892 50.1989C47.5145 50.2955 46.6214 51.7798 45.9335 54.8449L35.5423 100.363C33.8648 107.688 34.4561 108.376 45.9335 108.376C56.4212 108.376 60.778 106.397 65.7261 94.7276H68.5985L63.4452 111.646H15.4479Z" fill="#FCF1E0"/>
<path d="M112.227 65.8383L102.331 102.644C101.534 105.612 101.534 107.591 103.224 107.591C105.698 107.591 109.849 101.063 111.539 97.6962L113.916 99.1805C110.646 106.3 105.505 112.829 98.384 112.829C93.2428 112.829 92.048 108.871 94.1238 102.137L96.9961 92.5434H96.791C91.4445 101.944 82.743 112.829 72.7501 112.829C66.0158 112.829 64.1451 107.978 64.1451 101.546C64.1451 89.2731 74.3432 64.8367 96.3082 64.8367C99.4702 64.8367 102.053 65.8262 103.73 67.0088L104.032 65.8262H112.227V65.8383ZM97.0806 68.3121C82.6344 68.3121 73.6311 91.0712 73.6311 101.256C73.6311 104.912 74.5242 107.591 77.4931 107.591C85.905 107.591 97.6841 86.7149 100.544 77.5074C101.341 74.8405 102.125 72.3667 102.717 70.1825C101.341 68.9034 99.2651 68.3121 97.0806 68.3121Z" fill="#FCF1E0"/>
<path d="M122.558 83.2515H122.859C129.787 71.0876 138.887 64.8487 146.019 64.8487C152.947 64.8487 156.012 69.7964 156.012 76.723C156.012 80.8742 154.829 89.2852 150.267 97.5031C145.621 105.612 137.402 112.841 126.42 112.841C121.073 112.841 116.33 110.174 114.641 106.312L111.672 111.658H108.305L122.159 51.5987C122.956 47.9423 122.654 47.2424 120.277 47.0493L115.027 46.3615L115.522 44.1893L132.442 42.0172L132.937 42.4154L122.558 83.2515ZM141.855 70.086C136.111 70.086 129.292 77.8091 125.128 85.2185C122.159 90.6609 119.987 96.9963 119.987 101.449C119.987 106.095 122.859 109.558 127.506 109.558C140.962 109.558 146.598 84.3255 146.598 77.3988C146.598 72.2702 145.114 70.086 141.855 70.086Z" fill="#FCF1E0"/>
<path d="M53.7299 139.92L48.5886 155.053C42.5542 158.021 36.0251 159.011 29.2907 159.011C5.9378 159.023 0 144.469 0 131.714C0 125.282 1.3879 116.377 6.52917 108.171C11.9721 99.265 22.0616 91.1557 39.5853 91.1557C46.1145 91.1557 54.9247 92.8331 60.3676 96.1999L56.9039 110.343H54.0316C54.5264 100.242 50.5679 94.5104 38.9819 94.5104C18.6944 94.5104 10.8739 117.173 10.8739 134.285C10.8739 148.536 18.2961 155.656 28.9769 155.656C40.4543 155.656 45.7042 149.321 50.8454 139.92H53.7299Z" fill="#FCF1E0"/>
<path d="M95.0048 127.165C95.0048 132.209 93.4238 139.932 89.1635 146.654C84.8067 153.58 78.2776 158.624 67.983 158.624C56.1074 158.624 50.7609 151.505 50.7609 141.609C50.7609 133.102 56.397 110.644 78.2655 110.644C85.7964 110.632 95.0048 114.301 95.0048 127.165ZM59.9693 145.459C59.9693 151.891 62.9382 155.258 68.1881 155.258C80.7516 155.258 85.6998 130.423 85.6998 123.798C85.6998 118.162 83.7205 113.999 77.9758 113.999C66.0037 113.999 59.9693 135.467 59.9693 145.459Z" fill="#FCF1E0"/>
<path d="M91.348 152.784C91.348 149.019 93.7255 145.954 97.5875 145.954C101.244 145.954 102.729 148.428 102.729 151.987C102.729 155.644 100.351 158.516 96.2961 158.516C92.7359 158.528 91.348 156.151 91.348 152.784Z" fill="#FCF1E0"/>
</svg>
