<svg width="192" height="40" viewBox="0 0 192 40" fill="none" xmlns="http://www.w3.org/2000/svg">
<path d="M7.8301 2.83344H21.4312C27.9269 2.83344 33.8672 4.8331 33.8672 12.7233C33.8672 17.0005 32.2009 20.7762 28.8684 22.8368C26.0371 24.6128 22.4269 25.1686 18.986 25.1686C16.9878 25.1686 14.2649 24.8907 13.154 24.5043L10.824 34.7263C10.4921 36.3939 10.7156 37.1734 11.989 37.2818L15.5992 37.5598L15.2673 39.112H0L0.386086 37.5598L3.21739 37.2818C4.49079 37.1124 4.99203 36.5023 5.38489 34.7263L11.7113 7.22591C12.0974 5.50417 11.7655 4.77887 10.5463 4.67041L7.49143 4.39249L7.8301 2.83344ZM14.0413 21.1083C13.6553 22.7216 15.9853 23.2774 18.4847 23.2774C24.6486 23.2774 28.0895 19.556 28.0895 12.059C28.0895 7.39537 25.4275 4.67041 20.3203 4.67041C17.7667 4.67041 17.5974 4.94833 17.2655 6.56162L14.0413 21.1083Z" fill="#001C72"/>
<path d="M48.1796 32.164C44.5694 38.0003 39.855 39.7763 35.6894 39.7763C32.411 39.7763 27.9744 38.4409 27.9744 31.1676C27.9744 26.7819 29.5865 22.003 32.3027 18.6138C35.1881 15.0551 38.8526 12.8385 43.5737 12.8385C47.9019 12.8385 49.7917 15.3398 49.7917 18.1732C49.7917 25.3381 38.7442 27.392 33.3593 28.0088C33.3051 28.3952 33.2509 29.6763 33.2509 29.9542C33.2509 34.0078 34.3618 37.1191 37.972 37.1191C41.9142 37.1191 44.908 33.8993 46.9062 31.1201L48.1796 32.164ZM45.0706 17.78C45.0706 16.0041 44.0681 14.6687 42.2393 14.6687C38.1346 14.6687 34.4092 19.9492 33.5219 26.2261C40.2411 25.2771 45.0706 22.7758 45.0706 17.78Z" fill="#001C72"/>
<path d="M57.8383 15.5567L53.2324 34.3874C52.9005 35.6617 52.9547 36.8344 53.9571 36.8344C55.3999 36.8344 58.2312 33.4452 59.4504 31.337L60.6154 32.3403C58.5089 36.2854 55.2306 39.7831 51.0107 39.7831C48.3487 39.7831 47.6782 37.5597 48.4571 34.5026L53.1172 15.5567H48.789L49.3444 13.5028H53.6185L54.8377 8.77815L59.613 5.99896L60.2226 6.38534L58.3328 13.496H67.4634L66.8538 15.5499H57.8383V15.5567Z" fill="#001C72"/>
<path d="M56.2874 39.112L56.6193 37.5598L59.5047 37.2818C60.7781 37.1124 61.2794 36.5565 61.6722 34.7263L67.9444 7.22591C68.3915 5.50417 68.0528 4.72464 66.8336 4.67041L63.7788 4.39249L64.1107 2.84021H79.1003L78.7142 4.39249L75.6052 4.61618C74.2708 4.67041 73.7764 5.50417 73.3835 7.22591L67.5516 32.7809C66.6101 36.8887 66.942 37.2818 73.3835 37.2818C79.2696 37.2818 81.7081 36.1702 84.4852 29.6153H86.0973L83.2118 39.112H56.2874Z" fill="#001C72"/>
<path d="M110.685 13.3876L105.131 34.0552C104.684 35.7228 104.684 36.8344 105.632 36.8344C107.02 36.8344 109.351 33.1673 110.292 31.276L111.626 32.1098C109.798 36.1091 106.905 39.7763 102.909 39.7763C100.024 39.7763 99.353 37.553 100.525 33.7773L102.137 28.3884H102.028C99.0346 33.6689 94.1442 39.7763 88.5425 39.7763C84.7697 39.7763 83.7131 37.0513 83.7131 33.4452C83.7131 26.5582 89.4299 12.8385 101.751 12.8385C103.525 12.8385 104.968 13.3943 105.916 14.0586L106.086 13.3943H110.685V13.3876ZM102.191 14.7772C94.0832 14.7772 89.037 27.5546 89.037 33.2757C89.037 35.3296 89.5382 36.8344 91.2045 36.8344C95.9256 36.8344 102.53 25.1144 104.135 19.9492C104.582 18.4511 105.022 17.0615 105.354 15.8414C104.575 15.1093 103.41 14.7772 102.191 14.7772Z" fill="#001C72"/>
<path d="M116.456 23.1622H116.625C120.513 16.3294 125.62 12.8317 129.617 12.8317C133.505 12.8317 135.225 15.6109 135.225 19.495C135.225 21.8268 134.561 26.5514 132.008 31.1608C129.4 35.716 124.794 39.7695 118.63 39.7695C115.629 39.7695 112.967 38.2715 112.026 36.1024L110.36 39.1052H108.47L116.232 5.38892C116.679 3.33503 116.51 2.94187 115.176 2.83342L112.236 2.44704L112.514 1.22691L122.01 0L122.288 0.223691L116.456 23.1622ZM127.28 15.7736C124.062 15.7736 120.229 20.1051 117.898 24.2739C116.232 27.331 115.013 30.8829 115.013 33.3842C115.013 35.9939 116.625 37.9393 119.233 37.9393C126.785 37.9393 129.948 23.7722 129.948 19.8882C129.942 17.0005 129.115 15.7736 127.28 15.7736Z" fill="#001C72"/>
<path d="M165.97 29.2764L163.084 37.7767C159.697 39.4442 156.033 40 152.26 40C139.16 40 135.828 31.8319 135.828 24.667C135.828 21.0541 136.607 16.0583 139.492 11.4489C142.547 6.4464 148.21 1.89124 158.031 1.89124C161.696 1.89124 166.634 2.83345 169.688 4.72465L167.744 12.6691H166.132C166.41 7.00223 164.188 3.78244 157.693 3.78244C146.313 3.78244 141.931 16.5057 141.931 26.1176C141.931 34.1163 146.096 38.1156 152.091 38.1156C158.532 38.1156 161.472 34.5569 164.358 29.2832H165.97V29.2764Z" fill="#001C72"/>
<path d="M189.175 22.1115C189.175 24.9449 188.288 29.2764 185.897 33.052C183.452 36.9429 179.794 39.7763 174.016 39.7763C167.358 39.7763 164.358 35.777 164.358 30.2186C164.358 25.4398 167.521 12.8317 179.787 12.8317C184.007 12.8317 189.175 14.8856 189.175 22.1115ZM169.519 32.3877C169.519 36.0007 171.185 37.8851 174.125 37.8851C181.176 37.8851 183.953 23.9417 183.953 20.2203C183.953 17.0547 182.842 14.7229 179.625 14.7229C172.906 14.7229 169.519 26.7751 169.519 32.3877Z" fill="#001C72"/>
<path d="M185.619 36.4955C185.619 34.3874 186.954 32.6656 189.115 32.6656C191.167 32.6656 192 34.0552 192 36.0549C192 38.1088 190.666 39.7221 188.39 39.7221C186.398 39.7221 185.619 38.3867 185.619 36.4955Z" fill="#001C72"/>
</svg>
